<mxfile host="app.diagrams.net" modified="2024-04-17T16:39:04.847Z" agent="Mozilla/5.0 (Windows NT 10.0; Win64; x64) AppleWebKit/537.36 (KHTML, like Gecko) Chrome/123.0.0.0 Safari/537.36" etag="8t2VfGffdwRdHpGwBkja" version="24.2.5" type="device">
  <diagram id="bc47vRQSer-DN1HRI0ml" name="Page-1">
    <mxGraphModel dx="882" dy="578" grid="1" gridSize="10" guides="1" tooltips="1" connect="1" arrows="1" fold="1" page="1" pageScale="1" pageWidth="850" pageHeight="1100" math="0" shadow="0">
      <root>
        <mxCell id="0" />
        <mxCell id="1" parent="0" />
        <mxCell id="ktq69xOBjVKp33dEk9sb-27" style="edgeStyle=orthogonalEdgeStyle;rounded=0;orthogonalLoop=1;jettySize=auto;html=1;exitX=0.5;exitY=1;exitDx=0;exitDy=0;" parent="1" source="ktq69xOBjVKp33dEk9sb-1" target="ktq69xOBjVKp33dEk9sb-2" edge="1">
          <mxGeometry relative="1" as="geometry" />
        </mxCell>
        <mxCell id="ktq69xOBjVKp33dEk9sb-1" value="User" style="rounded=1;whiteSpace=wrap;html=1;" parent="1" vertex="1">
          <mxGeometry x="320" y="40" width="120" height="60" as="geometry" />
        </mxCell>
        <mxCell id="ktq69xOBjVKp33dEk9sb-28" style="edgeStyle=orthogonalEdgeStyle;rounded=0;orthogonalLoop=1;jettySize=auto;html=1;exitX=0;exitY=0.5;exitDx=0;exitDy=0;" parent="1" source="ktq69xOBjVKp33dEk9sb-2" target="ktq69xOBjVKp33dEk9sb-3" edge="1">
          <mxGeometry relative="1" as="geometry" />
        </mxCell>
        <mxCell id="ktq69xOBjVKp33dEk9sb-29" style="edgeStyle=orthogonalEdgeStyle;rounded=0;orthogonalLoop=1;jettySize=auto;html=1;exitX=1;exitY=0.5;exitDx=0;exitDy=0;entryX=0.5;entryY=0;entryDx=0;entryDy=0;" parent="1" source="ktq69xOBjVKp33dEk9sb-2" target="ktq69xOBjVKp33dEk9sb-4" edge="1">
          <mxGeometry relative="1" as="geometry" />
        </mxCell>
        <mxCell id="ktq69xOBjVKp33dEk9sb-2" value="Load balancer" style="rounded=1;whiteSpace=wrap;html=1;" parent="1" vertex="1">
          <mxGeometry x="320" y="160" width="120" height="60" as="geometry" />
        </mxCell>
        <mxCell id="8E6VHBpOMy2JOGCtMbF6-8" style="edgeStyle=orthogonalEdgeStyle;rounded=0;orthogonalLoop=1;jettySize=auto;html=1;exitX=0.5;exitY=1;exitDx=0;exitDy=0;entryX=0.5;entryY=0;entryDx=0;entryDy=0;" edge="1" parent="1" source="ktq69xOBjVKp33dEk9sb-3" target="8E6VHBpOMy2JOGCtMbF6-3">
          <mxGeometry relative="1" as="geometry" />
        </mxCell>
        <mxCell id="ktq69xOBjVKp33dEk9sb-3" value="Location based service" style="rounded=1;whiteSpace=wrap;html=1;" parent="1" vertex="1">
          <mxGeometry x="80" y="280" width="120" height="60" as="geometry" />
        </mxCell>
        <mxCell id="ktq69xOBjVKp33dEk9sb-18" style="edgeStyle=orthogonalEdgeStyle;rounded=0;orthogonalLoop=1;jettySize=auto;html=1;exitX=0.5;exitY=1;exitDx=0;exitDy=0;entryX=0.5;entryY=0;entryDx=0;entryDy=0;" parent="1" source="ktq69xOBjVKp33dEk9sb-4" target="ktq69xOBjVKp33dEk9sb-14" edge="1">
          <mxGeometry relative="1" as="geometry">
            <Array as="points">
              <mxPoint x="620" y="360" />
              <mxPoint x="720" y="360" />
            </Array>
          </mxGeometry>
        </mxCell>
        <mxCell id="8E6VHBpOMy2JOGCtMbF6-13" style="edgeStyle=orthogonalEdgeStyle;rounded=0;orthogonalLoop=1;jettySize=auto;html=1;exitX=0;exitY=0.5;exitDx=0;exitDy=0;entryX=0.75;entryY=0;entryDx=0;entryDy=0;" edge="1" parent="1" source="ktq69xOBjVKp33dEk9sb-4" target="8E6VHBpOMy2JOGCtMbF6-3">
          <mxGeometry relative="1" as="geometry" />
        </mxCell>
        <mxCell id="ktq69xOBjVKp33dEk9sb-4" value="Business service" style="rounded=1;whiteSpace=wrap;html=1;" parent="1" vertex="1">
          <mxGeometry x="560" y="280" width="120" height="60" as="geometry" />
        </mxCell>
        <mxCell id="8E6VHBpOMy2JOGCtMbF6-6" style="edgeStyle=orthogonalEdgeStyle;rounded=0;orthogonalLoop=1;jettySize=auto;html=1;exitX=0;exitY=0.5;exitDx=0;exitDy=0;entryX=1;entryY=0.5;entryDx=0;entryDy=0;" edge="1" parent="1" source="ktq69xOBjVKp33dEk9sb-5" target="8E6VHBpOMy2JOGCtMbF6-3">
          <mxGeometry relative="1" as="geometry" />
        </mxCell>
        <mxCell id="ktq69xOBjVKp33dEk9sb-5" value="" style="swimlane;startSize=0;" parent="1" vertex="1">
          <mxGeometry x="400" y="400" width="400" height="120" as="geometry" />
        </mxCell>
        <mxCell id="ktq69xOBjVKp33dEk9sb-6" value="Replica" style="rounded=1;whiteSpace=wrap;html=1;" parent="ktq69xOBjVKp33dEk9sb-5" vertex="1">
          <mxGeometry x="30" y="40" width="80" height="40" as="geometry" />
        </mxCell>
        <mxCell id="ktq69xOBjVKp33dEk9sb-7" value="Replica" style="rounded=1;whiteSpace=wrap;html=1;" parent="ktq69xOBjVKp33dEk9sb-5" vertex="1">
          <mxGeometry x="160" y="40" width="80" height="40" as="geometry" />
        </mxCell>
        <mxCell id="8E6VHBpOMy2JOGCtMbF6-1" style="edgeStyle=orthogonalEdgeStyle;rounded=0;orthogonalLoop=1;jettySize=auto;html=1;exitX=0;exitY=0.5;exitDx=0;exitDy=0;entryX=1;entryY=0.5;entryDx=0;entryDy=0;" edge="1" parent="ktq69xOBjVKp33dEk9sb-5" source="ktq69xOBjVKp33dEk9sb-14" target="ktq69xOBjVKp33dEk9sb-7">
          <mxGeometry relative="1" as="geometry" />
        </mxCell>
        <mxCell id="8E6VHBpOMy2JOGCtMbF6-2" style="edgeStyle=orthogonalEdgeStyle;rounded=0;orthogonalLoop=1;jettySize=auto;html=1;exitX=0.5;exitY=1;exitDx=0;exitDy=0;entryX=0.5;entryY=1;entryDx=0;entryDy=0;" edge="1" parent="ktq69xOBjVKp33dEk9sb-5" source="ktq69xOBjVKp33dEk9sb-14" target="ktq69xOBjVKp33dEk9sb-6">
          <mxGeometry relative="1" as="geometry" />
        </mxCell>
        <mxCell id="ktq69xOBjVKp33dEk9sb-14" value="Primary" style="rounded=1;whiteSpace=wrap;html=1;" parent="ktq69xOBjVKp33dEk9sb-5" vertex="1">
          <mxGeometry x="280" y="40" width="80" height="40" as="geometry" />
        </mxCell>
        <mxCell id="8E6VHBpOMy2JOGCtMbF6-12" value="DB cluster" style="text;html=1;align=center;verticalAlign=middle;whiteSpace=wrap;rounded=0;" vertex="1" parent="ktq69xOBjVKp33dEk9sb-5">
          <mxGeometry x="320" y="90" width="80" height="30" as="geometry" />
        </mxCell>
        <mxCell id="ktq69xOBjVKp33dEk9sb-30" value="/search/nearby" style="text;html=1;align=center;verticalAlign=middle;whiteSpace=wrap;rounded=0;" parent="1" vertex="1">
          <mxGeometry x="160" y="160" width="120" height="30" as="geometry" />
        </mxCell>
        <mxCell id="ktq69xOBjVKp33dEk9sb-31" value="/businesses/id" style="text;html=1;align=center;verticalAlign=middle;whiteSpace=wrap;rounded=0;" parent="1" vertex="1">
          <mxGeometry x="480" y="160" width="120" height="30" as="geometry" />
        </mxCell>
        <mxCell id="8E6VHBpOMy2JOGCtMbF6-3" value="" style="swimlane;startSize=0;" vertex="1" parent="1">
          <mxGeometry x="40" y="400" width="290" height="120" as="geometry" />
        </mxCell>
        <mxCell id="8E6VHBpOMy2JOGCtMbF6-4" value="Business info" style="rounded=1;whiteSpace=wrap;html=1;" vertex="1" parent="8E6VHBpOMy2JOGCtMbF6-3">
          <mxGeometry x="40" y="40" width="80" height="40" as="geometry" />
        </mxCell>
        <mxCell id="8E6VHBpOMy2JOGCtMbF6-5" value="Geohash" style="rounded=1;whiteSpace=wrap;html=1;" vertex="1" parent="8E6VHBpOMy2JOGCtMbF6-3">
          <mxGeometry x="160" y="40" width="80" height="40" as="geometry" />
        </mxCell>
        <mxCell id="8E6VHBpOMy2JOGCtMbF6-11" value="Redis cluster" style="text;html=1;align=center;verticalAlign=middle;whiteSpace=wrap;rounded=0;" vertex="1" parent="8E6VHBpOMy2JOGCtMbF6-3">
          <mxGeometry x="200" y="90" width="90" height="30" as="geometry" />
        </mxCell>
        <mxCell id="8E6VHBpOMy2JOGCtMbF6-7" value="Sync" style="text;html=1;align=center;verticalAlign=middle;whiteSpace=wrap;rounded=0;" vertex="1" parent="1">
          <mxGeometry x="320" y="410" width="80" height="30" as="geometry" />
        </mxCell>
        <mxCell id="8E6VHBpOMy2JOGCtMbF6-9" value="Read" style="text;html=1;align=center;verticalAlign=middle;whiteSpace=wrap;rounded=0;" vertex="1" parent="1">
          <mxGeometry x="180" y="370" width="60" height="30" as="geometry" />
        </mxCell>
        <mxCell id="8E6VHBpOMy2JOGCtMbF6-10" value="Write" style="text;html=1;align=center;verticalAlign=middle;whiteSpace=wrap;rounded=0;" vertex="1" parent="1">
          <mxGeometry x="720" y="370" width="80" height="30" as="geometry" />
        </mxCell>
        <mxCell id="8E6VHBpOMy2JOGCtMbF6-14" value="Read" style="text;html=1;align=center;verticalAlign=middle;whiteSpace=wrap;rounded=0;" vertex="1" parent="1">
          <mxGeometry x="280" y="320" width="80" height="30" as="geometry" />
        </mxCell>
      </root>
    </mxGraphModel>
  </diagram>
</mxfile>
